<svg width="400" height="250" viewBox="0 0 400 250" fill="none" xmlns="http://www.w3.org/2000/svg">
<path d="M200 235C299.411 235 380 228.284 380 220C380 211.716 299.411 205 200 205C100.589 205 20 211.716 20 220C20 228.284 100.589 235 200 235Z" fill="white" fill-opacity="0.1"/>
<path d="M80 160L120 130H180L220 160H320V190H80V160Z" fill="white"/>
<path d="M130 135H165L175 155H130V135Z" fill="#3B82F6" fill-opacity="0.3"/>
<path d="M185 135L210 155H185V135Z" fill="#3B82F6" fill-opacity="0.3"/>
<path d="M320 170H80V190H320V170Z" fill="#E5E7EB"/>
<path d="M308 175H252C250.895 175 250 175.895 250 177V183C250 184.105 250.895 185 252 185H308C309.105 185 310 184.105 310 183V177C310 175.895 309.105 175 308 175Z" fill="#FBBF24"/>
<path d="M120 215C133.807 215 145 203.807 145 190C145 176.193 133.807 165 120 165C106.193 165 95 176.193 95 190C95 203.807 106.193 215 120 215Z" fill="#1F2937"/>
<path d="M120 205C128.284 205 135 198.284 135 190C135 181.716 128.284 175 120 175C111.716 175 105 181.716 105 190C105 198.284 111.716 205 120 205Z" fill="#4B5563"/>
<path d="M120 198C124.418 198 128 194.418 128 190C128 185.582 124.418 182 120 182C115.582 182 112 185.582 112 190C112 194.418 115.582 198 120 198Z" fill="#9CA3AF"/>
<path d="M280 215C293.807 215 305 203.807 305 190C305 176.193 293.807 165 280 165C266.193 165 255 176.193 255 190C255 203.807 266.193 215 280 215Z" fill="#1F2937"/>
<path d="M280 205C288.284 205 295 198.284 295 190C295 181.716 288.284 175 280 175C271.716 175 265 181.716 265 190C265 198.284 271.716 205 280 205Z" fill="#4B5563"/>
<path d="M280 198C284.418 198 288 194.418 288 190C288 185.582 284.418 182 280 182C275.582 182 272 185.582 272 190C272 194.418 275.582 198 280 198Z" fill="#9CA3AF"/>
<path d="M40 140H70" stroke="white" stroke-opacity="0.3"/>
<path d="M30 160H65" stroke="white" stroke-opacity="0.3"/>
<path d="M25 180H60" stroke="white" stroke-opacity="0.3"/>
<path d="M378.5 100H351.5C350.672 100 350 100.672 350 101.5C350 102.328 350.672 103 351.5 103H378.5C379.328 103 380 102.328 380 101.5C380 100.672 379.328 100 378.5 100Z" fill="white" fill-opacity="0.2"/>
<path d="M378.5 120H341.5C340.672 120 340 120.672 340 121.5C340 122.328 340.672 123 341.5 123H378.5C379.328 123 380 122.328 380 121.5C380 120.672 379.328 120 378.5 120Z" fill="white" fill-opacity="0.2"/>
<path d="M340 100C351.046 100 360 91.0457 360 80C360 68.9543 351.046 60 340 60C328.954 60 320 68.9543 320 80C320 91.0457 328.954 100 340 100Z" fill="white" fill-opacity="0.1"/>
<path d="M365 90C373.284 90 380 83.2843 380 75C380 66.7157 373.284 60 365 60C356.716 60 350 66.7157 350 75C350 83.2843 356.716 90 365 90Z" fill="white" fill-opacity="0.1"/>
<path d="M45 60H30V100H45V60Z" fill="white" fill-opacity="0.1"/>
<path d="M62 70H50V100H62V70Z" fill="white" fill-opacity="0.1"/>
</svg>
