<svg xmlns="http://www.w3.org/2000/svg" style="display:none">
    <symbol id="icon-facebook" viewBox="0 0 48 48">

        <g clip-path="url(#clip0_17_24)">
            <path
                d="M48 24C48 10.7453 37.2547 0 24 0C10.7453 0 0 10.7453 0 24C0 35.255 7.74912 44.6995 18.2026 47.2934V31.3344H13.2538V24H18.2026V20.8397C18.2026 12.671 21.8995 8.8848 29.9194 8.8848C31.44 8.8848 34.0637 9.18336 35.137 9.48096V16.129C34.5706 16.0694 33.5866 16.0397 32.3645 16.0397C28.4294 16.0397 26.9088 17.5306 26.9088 21.4061V24H34.7482L33.4013 31.3344H26.9088V47.8243C38.7926 46.3891 48.001 36.2707 48.001 24H48Z"
                fill="#0866FF" />
            <path
                d="M33.4003 31.3344L34.7472 24H26.9078V21.4061C26.9078 17.5306 28.4285 16.0397 32.3635 16.0397C33.5856 16.0397 34.5696 16.0694 35.136 16.129V9.48096C34.0627 9.1824 31.439 8.8848 29.9184 8.8848C21.8986 8.8848 18.2016 12.671 18.2016 20.8397V24H13.2528V31.3344H18.2016V47.2934C20.0582 47.7542 22.0003 48 23.999 48C24.983 48 25.9536 47.9395 26.9069 47.8243V31.3344H33.3994H33.4003Z"
                fill="white" />
        </g>
        <defs>
            <clipPath id="clip0_17_24">
                <rect width="48" height="48" fill="white" />
            </clipPath>
        </defs>

    </symbol>
    <symbol id="icon-google" viewBox="0 0 48 48">

        <mask id="mask0_17_40" style="mask-type:luminance" maskUnits="userSpaceOnUse" x="0" y="0"
            width="48" height="48">
            <path
                d="M47.5391 19.5474H24.5112V28.7747H37.7431C37.5304 30.0805 37.0528 31.3652 36.3534 32.5366C35.552 33.8786 34.5613 34.9004 33.5459 35.6785C30.5042 38.0093 26.958 38.4859 24.4952 38.4859C18.2738 38.4859 12.9581 34.4649 10.9002 29.0011C10.8172 28.8029 10.762 28.5981 10.6949 28.3956C10.2401 27.005 9.99169 25.5323 9.99169 24.0015C9.99169 22.4084 10.2607 20.8835 10.7513 19.4432C12.6864 13.7628 18.122 9.52012 24.4997 9.52012C25.7824 9.52012 27.0178 9.67282 28.1892 9.97738C30.8665 10.6734 32.7603 12.0442 33.9207 13.1286L40.9225 6.27151C36.6634 2.36633 31.1111 5.90435e-09 24.488 5.90435e-09C19.1933 -0.000113959 14.305 1.64956 10.2992 4.43757C7.05062 6.69857 4.38633 9.72576 2.58825 13.2415C0.915782 16.5013 0 20.1138 0 23.9979C0 27.8822 0.917181 31.5322 2.58966 34.7619V34.7837C4.3562 38.2124 6.93949 41.1646 10.0792 43.4152C12.8221 45.3814 17.7403 48 24.488 48C28.3684 48 31.8075 47.3004 34.8405 45.9893C37.0285 45.0435 38.9671 43.8098 40.7222 42.2244C43.0413 40.1294 44.8575 37.5382 46.0972 34.557C47.3369 31.5757 48 28.2044 48 24.5493C48 22.8471 47.829 21.1184 47.5391 19.5473V19.5474Z"
                fill="white" />
        </mask>
        <g mask="url(#mask0_17_40)">
            <g filter="url(#filter0_f_17_40)">
                <path
                    d="M-0.2771 24.1023C-0.251646 27.9253 0.8377 31.8696 2.48661 35.0538V35.0757C3.67802 37.3881 5.30634 39.2148 7.16097 41.0246L18.3625 36.9374C16.2432 35.8609 15.9198 35.2013 14.4007 33.9976C12.8482 32.4322 11.6912 30.6351 10.9706 28.5278H10.9416L10.9706 28.5059C10.4966 27.1144 10.4498 25.6373 10.4323 24.1023H-0.2771Z"
                    fill="url(#paint0_radial_17_40)" />
            </g>
            <g filter="url(#filter1_f_17_40)">
                <path
                    d="M24.5875 -0.233215C23.4803 3.65637 23.9037 7.43718 24.5875 9.63702C25.866 9.63797 27.0976 9.79037 28.2654 10.094C30.9427 10.79 32.8363 12.1609 33.9967 13.2452L41.1778 6.21297C36.9237 2.31245 31.8041 -0.22707 24.5875 -0.233215Z"
                    fill="url(#paint1_radial_17_40)" />
            </g>
            <g filter="url(#filter2_f_17_40)">
                <path
                    d="M24.5635 -0.263977C19.1328 -0.264094 14.1191 1.42793 10.0104 4.28752C8.48491 5.34929 7.08495 6.57581 5.83838 7.93972C5.51181 11.0034 8.28302 14.7691 13.7709 14.7379C16.4335 11.6406 20.3716 9.63667 24.7546 9.63667C24.7586 9.63667 24.7625 9.637 24.7665 9.63701L24.5875 -0.263276C24.5794 -0.263281 24.5716 -0.263977 24.5635 -0.263977Z"
                    fill="url(#paint2_radial_17_40)" />
            </g>
            <g filter="url(#filter3_f_17_40)">
                <path
                    d="M42.4876 25.2109L37.6404 28.5408C37.4277 29.8467 36.9498 31.1313 36.2503 32.3027C35.449 33.6448 34.4584 34.6666 33.4429 35.4447C30.4075 37.7707 26.8707 38.2496 24.4085 38.2515C21.8636 42.586 21.4175 44.757 24.5875 48.2552C28.5101 48.2523 31.9877 47.5443 35.0551 46.2183C37.2724 45.2598 39.2369 44.0096 41.0156 42.4028C43.3658 40.2798 45.2067 37.6537 46.463 34.6325C47.7193 31.6112 48.3911 28.1948 48.3911 24.4908L42.4876 25.2109Z"
                    fill="url(#paint3_radial_17_40)" />
            </g>
            <g filter="url(#filter4_f_17_40)">
                <path
                    d="M24.2295 19.1382V29.0666H47.5506C47.7557 27.7069 48.434 25.9474 48.434 24.4908C48.434 22.7885 48.2632 20.7094 47.9733 19.1382H24.2295Z"
                    fill="#3086FF" />
            </g>
            <g filter="url(#filter5_f_17_40)">
                <path
                    d="M5.94966 7.5892C4.51051 9.16383 3.28103 10.9263 2.3062 12.8324C0.633758 16.0922 -0.281982 20.0552 -0.281982 23.9393C-0.281982 23.9941 -0.277452 24.0476 -0.277087 24.1022C0.463586 25.5224 9.95397 25.2504 10.4323 24.1022C10.4317 24.0487 10.4257 23.9964 10.4257 23.9427C10.4257 22.3497 10.6948 21.1754 11.1854 19.7352C11.7906 17.9586 12.7382 16.3227 13.9499 14.9131C14.2246 14.5625 14.9573 13.8086 15.171 13.3564C15.2524 13.1841 15.0232 13.0875 15.0104 13.0268C14.996 12.959 14.6887 13.0135 14.6198 12.963C14.4011 12.8027 13.9682 12.7189 13.7053 12.6445C13.1433 12.4854 12.212 12.1345 11.6947 11.7707C10.0596 10.621 7.50794 9.24759 5.94966 7.5892Z"
                    fill="url(#paint4_radial_17_40)" />
            </g>
            <g filter="url(#filter6_f_17_40)">
                <path
                    d="M11.7299 13.0336C15.5215 15.3304 16.6119 11.8743 19.1328 10.7928L14.7476 1.69913C13.1345 2.37712 11.6104 3.21946 10.1963 4.20365C8.08448 5.67348 6.21956 7.46709 4.67902 9.50825L11.7299 13.0336Z"
                    fill="url(#paint5_radial_17_40)" />
            </g>
            <g filter="url(#filter7_f_17_40)">
                <path
                    d="M13.2731 36.2349C8.1833 38.0724 7.38648 38.1383 6.91797 41.2925C7.81327 42.1662 8.7752 42.9744 9.79741 43.7071C12.5403 45.6733 17.8164 48.2919 24.5641 48.2919C24.572 48.2919 24.5796 48.2912 24.5875 48.2912V38.0763C24.5824 38.0763 24.5765 38.0766 24.5714 38.0766C22.0447 38.0766 20.0255 37.413 17.9553 36.2589C17.4448 35.9743 16.5188 36.7384 16.048 36.3968C15.3987 35.9257 13.8362 36.8027 13.2731 36.2349Z"
                    fill="url(#paint6_radial_17_40)" />
            </g>
            <g opacity="0.5" filter="url(#filter8_f_17_40)">
                <path
                    d="M21.6067 37.7545V48.1142C22.5508 48.2248 23.5334 48.2919 24.5641 48.2919C25.5973 48.2919 26.597 48.2388 27.5683 48.1413V37.8244C26.4798 38.0105 25.4546 38.0766 24.5714 38.0766C23.5543 38.0766 22.5651 37.9582 21.6067 37.7545Z"
                    fill="url(#paint7_linear_17_40)" />
            </g>
        </g>
        <defs>
            <filter id="filter0_f_17_40" x="-0.747179" y="23.6322" width="19.5797" height="17.8625"
                filterUnits="userSpaceOnUse" color-interpolation-filters="sRGB">
                <feFlood flood-opacity="0" result="BackgroundImageFix" />
                <feBlend mode="normal" in="SourceGraphic" in2="BackgroundImageFix" result="shape" />
                <feGaussianBlur stdDeviation="0.23504" result="effect1_foregroundBlur_17_40" />
            </filter>
            <filter id="filter1_f_17_40" x="23.4367" y="-0.703295" width="18.2112" height="14.4186"
                filterUnits="userSpaceOnUse" color-interpolation-filters="sRGB">
                <feFlood flood-opacity="0" result="BackgroundImageFix" />
                <feBlend mode="normal" in="SourceGraphic" in2="BackgroundImageFix" result="shape" />
                <feGaussianBlur stdDeviation="0.23504" result="effect1_foregroundBlur_17_40" />
            </filter>
            <filter id="filter2_f_17_40" x="5.34242" y="-0.734056" width="19.8941" height="15.9422"
                filterUnits="userSpaceOnUse" color-interpolation-filters="sRGB">
                <feFlood flood-opacity="0" result="BackgroundImageFix" />
                <feBlend mode="normal" in="SourceGraphic" in2="BackgroundImageFix" result="shape" />
                <feGaussianBlur stdDeviation="0.23504" result="effect1_foregroundBlur_17_40" />
            </filter>
            <filter id="filter3_f_17_40" x="21.8837" y="24.0207" width="26.9775" height="24.7046"
                filterUnits="userSpaceOnUse" color-interpolation-filters="sRGB">
                <feFlood flood-opacity="0" result="BackgroundImageFix" />
                <feBlend mode="normal" in="SourceGraphic" in2="BackgroundImageFix" result="shape" />
                <feGaussianBlur stdDeviation="0.23504" result="effect1_foregroundBlur_17_40" />
            </filter>
            <filter id="filter4_f_17_40" x="23.7594" y="18.6682" width="25.1447" height="10.8685"
                filterUnits="userSpaceOnUse" color-interpolation-filters="sRGB">
                <feFlood flood-opacity="0" result="BackgroundImageFix" />
                <feBlend mode="normal" in="SourceGraphic" in2="BackgroundImageFix" result="shape" />
                <feGaussianBlur stdDeviation="0.23504" result="effect1_foregroundBlur_17_40" />
            </filter>
            <filter id="filter5_f_17_40" x="-0.752062" y="7.11912" width="16.4106" height="18.419"
                filterUnits="userSpaceOnUse" color-interpolation-filters="sRGB">
                <feFlood flood-opacity="0" result="BackgroundImageFix" />
                <feBlend mode="normal" in="SourceGraphic" in2="BackgroundImageFix" result="shape" />
                <feGaussianBlur stdDeviation="0.23504" result="effect1_foregroundBlur_17_40" />
            </filter>
            <filter id="filter6_f_17_40" x="1.37417" y="-1.60572" width="21.0634" height="18.7161"
                filterUnits="userSpaceOnUse" color-interpolation-filters="sRGB">
                <feFlood flood-opacity="0" result="BackgroundImageFix" />
                <feBlend mode="normal" in="SourceGraphic" in2="BackgroundImageFix" result="shape" />
                <feGaussianBlur stdDeviation="1.65243" result="effect1_foregroundBlur_17_40" />
            </filter>
            <filter id="filter7_f_17_40" x="6.44789" y="35.7239" width="18.6097" height="13.0381"
                filterUnits="userSpaceOnUse" color-interpolation-filters="sRGB">
                <feFlood flood-opacity="0" result="BackgroundImageFix" />
                <feBlend mode="normal" in="SourceGraphic" in2="BackgroundImageFix" result="shape" />
                <feGaussianBlur stdDeviation="0.23504" result="effect1_foregroundBlur_17_40" />
            </filter>
            <filter id="filter8_f_17_40" x="21.1366" y="37.2845" width="6.90177" height="11.4775"
                filterUnits="userSpaceOnUse" color-interpolation-filters="sRGB">
                <feFlood flood-opacity="0" result="BackgroundImageFix" />
                <feBlend mode="normal" in="SourceGraphic" in2="BackgroundImageFix" result="shape" />
                <feGaussianBlur stdDeviation="0.23504" result="effect1_foregroundBlur_17_40" />
            </filter>
            <radialGradient id="paint0_radial_17_40" cx="0" cy="0" r="1"
                gradientTransform="matrix(-0.997443 -23.9038 35.8622 -1.43445 18.1382 40.6645)"
                gradientUnits="userSpaceOnUse">
                <stop offset="0.141612" stop-color="#1ABD4D" />
                <stop offset="0.247515" stop-color="#6EC30D" />
                <stop offset="0.311547" stop-color="#8AC502" />
                <stop offset="0.366013" stop-color="#A2C600" />
                <stop offset="0.445673" stop-color="#C8C903" />
                <stop offset="0.540305" stop-color="#EBCB03" />
                <stop offset="0.615636" stop-color="#F7CD07" />
                <stop offset="0.699345" stop-color="#FDCD04" />
                <stop offset="0.771242" stop-color="#FDCE05" />
                <stop offset="0.860566" stop-color="#FFCE0A" />
            </radialGradient>
            <radialGradient id="paint1_radial_17_40" cx="0" cy="0" r="1"
                gradientTransform="matrix(16.9393 -4.07113e-05 -2.38089e-05 21.4185 40.506 12.7364)"
                gradientUnits="userSpaceOnUse">
                <stop offset="0.408458" stop-color="#FB4E5A" />
                <stop offset="1" stop-color="#FF4540" />
            </radialGradient>
            <radialGradient id="paint2_radial_17_40" cx="0" cy="0" r="1"
                gradientTransform="matrix(-23.7332 12.8698 17.8375 31.532 31.2553 -3.36438)"
                gradientUnits="userSpaceOnUse">
                <stop offset="0.231273" stop-color="#FF4541" />
                <stop offset="0.311547" stop-color="#FF4540" />
                <stop offset="0.457516" stop-color="#FF4640" />
                <stop offset="0.540305" stop-color="#FF473F" />
                <stop offset="0.699346" stop-color="#FF5138" />
                <stop offset="0.771242" stop-color="#FF5B33" />
                <stop offset="0.860566" stop-color="#FF6C29" />
                <stop offset="1" stop-color="#FF8C18" />
            </radialGradient>
            <radialGradient id="paint3_radial_17_40" cx="0" cy="0" r="1"
                gradientTransform="matrix(-43.0409 -55.0094 -20.7393 15.555 24.9404 45.1486)"
                gradientUnits="userSpaceOnUse">
                <stop offset="0.131546" stop-color="#0CBA65" />
                <stop offset="0.209784" stop-color="#0BB86D" />
                <stop offset="0.297297" stop-color="#09B479" />
                <stop offset="0.396257" stop-color="#08AD93" />
                <stop offset="0.477124" stop-color="#0AA6A9" />
                <stop offset="0.568425" stop-color="#0D9CC6" />
                <stop offset="0.667385" stop-color="#1893DD" />
                <stop offset="0.768727" stop-color="#258BF1" />
                <stop offset="0.858506" stop-color="#3086FF" />
            </radialGradient>
            <radialGradient id="paint4_radial_17_40" cx="0" cy="0" r="1"
                gradientTransform="matrix(-3.04591 25.7043 36.3002 4.12336 22.4842 4.26946)"
                gradientUnits="userSpaceOnUse">
                <stop offset="0.366013" stop-color="#FF4E3A" />
                <stop offset="0.457516" stop-color="#FF8A1B" />
                <stop offset="0.540305" stop-color="#FFA312" />
                <stop offset="0.615636" stop-color="#FFB60C" />
                <stop offset="0.771242" stop-color="#FFCD0A" />
                <stop offset="0.860566" stop-color="#FECF0A" />
                <stop offset="0.915033" stop-color="#FECF08" />
                <stop offset="1" stop-color="#FDCD01" />
            </radialGradient>
            <radialGradient id="paint5_radial_17_40" cx="0" cy="0" r="1"
                gradientTransform="matrix(-8.80425 9.53355 -27.4644 -24.3132 18.2009 4.00284)"
                gradientUnits="userSpaceOnUse">
                <stop offset="0.315904" stop-color="#FF4C3C" />
                <stop offset="0.603818" stop-color="#FF692C" />
                <stop offset="0.726837" stop-color="#FF7825" />
                <stop offset="0.884534" stop-color="#FF8D1B" />
                <stop offset="1" stop-color="#FF9F13" />
            </radialGradient>
            <radialGradient id="paint6_radial_17_40" cx="0" cy="0" r="1"
                gradientTransform="matrix(-23.7332 -12.8698 17.8375 -31.532 31.2553 51.2464)"
                gradientUnits="userSpaceOnUse">
                <stop offset="0.231273" stop-color="#0FBC5F" />
                <stop offset="0.311547" stop-color="#0FBC5F" />
                <stop offset="0.366013" stop-color="#0FBC5E" />
                <stop offset="0.457516" stop-color="#0FBC5D" />
                <stop offset="0.540305" stop-color="#12BC58" />
                <stop offset="0.699346" stop-color="#28BF3C" />
                <stop offset="0.771242" stop-color="#38C02B" />
                <stop offset="0.860566" stop-color="#52C218" />
                <stop offset="0.915033" stop-color="#67C30F" />
                <stop offset="1" stop-color="#86C504" />
            </radialGradient>
            <linearGradient id="paint7_linear_17_40" x1="21.6067" y1="43.0232" x2="27.5683"
                y2="43.0232" gradientUnits="userSpaceOnUse">
                <stop stop-color="#0FBC5C" />
                <stop offset="1" stop-color="#0CBA65" />
            </linearGradient>
        </defs>

    </symbol>
    <symbol id="icon-whatsapp" viewBox="0 0 48 48">

        <path
            d="M0 48L3.374 35.674C1.292 32.066 0.198 27.976 0.2 23.782C0.206 10.67 10.876 0 23.986 0C30.348 0.002 36.32 2.48 40.812 6.976C45.302 11.472 47.774 17.448 47.772 23.804C47.766 36.918 37.096 47.588 23.986 47.588C20.006 47.586 16.084 46.588 12.61 44.692L0 48ZM13.194 40.386C16.546 42.376 19.746 43.568 23.978 43.57C34.874 43.57 43.75 34.702 43.756 23.8C43.76 12.876 34.926 4.02 23.994 4.016C13.09 4.016 4.22 12.884 4.216 23.784C4.214 28.234 5.518 31.566 7.708 35.052L5.71 42.348L13.194 40.386ZM35.968 29.458C35.82 29.21 35.424 29.062 34.828 28.764C34.234 28.466 31.312 27.028 30.766 26.83C30.222 26.632 29.826 26.532 29.428 27.128C29.032 27.722 27.892 29.062 27.546 29.458C27.2 29.854 26.852 29.904 26.258 29.606C25.664 29.308 23.748 28.682 21.478 26.656C19.712 25.08 18.518 23.134 18.172 22.538C17.826 21.944 18.136 21.622 18.432 21.326C18.7 21.06 19.026 20.632 19.324 20.284C19.626 19.94 19.724 19.692 19.924 19.294C20.122 18.898 20.024 18.55 19.874 18.252C19.724 17.956 18.536 15.03 18.042 13.84C17.558 12.682 17.068 12.838 16.704 12.82L15.564 12.8C15.168 12.8 14.524 12.948 13.98 13.544C13.436 14.14 11.9 15.576 11.9 18.502C11.9 21.428 14.03 24.254 14.326 24.65C14.624 25.046 18.516 31.05 24.478 33.624C25.896 34.236 27.004 34.602 27.866 34.876C29.29 35.328 30.586 35.264 31.61 35.112C32.752 34.942 35.126 33.674 35.622 32.286C36.118 30.896 36.118 29.706 35.968 29.458Z"
            fill="#25D366" />

    </symbol>
</svg>