<svg width="48" height="48" viewBox="0 0 48 48" fill="none" xmlns="http://www.w3.org/2000/svg">
<path d="M11.6874 30.983L12.1759 31.0412C12.3969 31.0644 12.4202 31.2505 12.4202 31.3669V31.9368H10.1752V31.3669C10.1752 31.2505 10.1985 31.0644 10.4195 31.0412L10.908 30.983V30.4945H8V30.983L8.48855 31.0412C8.70956 31.0644 8.73282 31.2505 8.73282 31.3669V33.2513C8.73282 33.3676 8.70956 33.5537 8.48855 33.577L8 33.6351V34.1237H10.908V33.6351L10.4195 33.577C10.1985 33.5537 10.1752 33.3676 10.1752 33.2513V32.6813H12.4086V33.2513C12.4086 33.3676 12.3853 33.5537 12.1643 33.577L11.6758 33.6351V34.1237H14.5838V33.6351L14.0952 33.577C13.8742 33.5537 13.851 33.3676 13.851 33.2513V31.3669C13.851 31.2505 13.8742 31.0644 14.0952 31.0412L14.5838 30.983V30.4945H11.6758V30.983H11.6874Z" fill="black"/>
<path d="M31.0549 30.4945H27.4722V30.983L27.9026 31.0295C28.0538 31.0528 28.1585 31.111 28.1585 31.3203V33.2396C28.1585 33.356 28.1352 33.5421 27.9142 33.5653L27.4257 33.6235V34.112H31.0549C32.3577 34.112 33.4278 33.5886 33.4278 32.2974C33.4278 31.0063 32.3577 30.4945 31.0549 30.4945ZM30.7873 33.4258H29.566V31.1924H30.7873C31.5085 31.1924 31.7528 31.5297 31.7528 32.3091C31.7528 33.0768 31.5085 33.4258 30.7873 33.4258Z" fill="black"/>
<path d="M39.5231 33.577C39.2905 33.5537 39.2207 33.4025 39.1509 33.2978L37.4758 30.7387C37.3595 30.5526 37.2665 30.4945 37.092 30.4945H34.3468V30.983L35.0098 31.0528C35.1029 31.0644 35.2308 31.1924 35.1261 31.3552L33.8815 33.3676C33.835 33.449 33.7652 33.5421 33.6256 33.5653L33.1371 33.6235V34.112H35.4518V33.6235L35.0564 33.5886C34.8819 33.5653 34.7888 33.449 34.8819 33.3094L35.068 33.007H37.3014L37.4642 33.2513C37.6154 33.4723 37.4293 33.5653 37.2665 33.577L36.8593 33.6235V34.112H40V33.6235L39.5231 33.577ZM35.4518 32.3672L36.1381 31.2505L36.871 32.3672H35.4518Z" fill="black"/>
<path d="M24.8782 30.9828L25.3667 31.041C25.5878 31.0642 25.611 31.2504 25.611 31.3667V33.1813L23.6917 30.6455C23.6103 30.5292 23.5289 30.4943 23.3195 30.4943H20.8302V30.9828L21.3188 31.041C21.5398 31.0642 21.563 31.2504 21.563 31.3667V33.2511C21.563 33.3674 21.5398 33.5535 21.3188 33.5768L20.8302 33.635V34.1235H23.1566V33.635L22.6681 33.5768C22.4471 33.5535 22.4238 33.3674 22.4238 33.2511V31.4365L24.3431 33.9607C24.4362 34.077 24.506 34.1119 24.7153 34.1119H24.7386H26.4834V31.3551C26.4834 31.2387 26.5067 31.0526 26.7277 31.0294L27.2163 30.9712V30.4826H24.9015L24.8782 30.9828Z" fill="black"/>
<path d="M17.7012 30.3663C15.3399 30.3663 14.735 31.4016 14.735 32.2973C14.735 33.1929 15.3399 34.2398 17.7012 34.2398C20.0625 34.2398 20.6674 33.2046 20.6674 32.3089C20.6674 31.4016 20.0625 30.3663 17.7012 30.3663ZM17.7012 33.5535C16.7823 33.5535 16.41 33.1697 16.41 32.3089C16.41 31.4481 16.7939 31.0643 17.7012 31.0643C18.6201 31.0643 18.9924 31.4481 18.9924 32.3089C18.9924 33.1697 18.6201 33.5535 17.7012 33.5535Z" fill="black"/>
<path d="M28.0189 15.1982C27.6234 16.9779 27.4606 17.8038 27.1349 19.0833C26.8208 20.3163 26.5765 21.4679 26.1578 22.0263C25.739 22.5962 25.169 22.7126 24.7852 22.7591C24.5874 22.7824 24.4362 22.794 24.0058 22.794C23.5754 22.794 23.4242 22.7824 23.2265 22.7591C22.8426 22.7126 22.2726 22.5962 21.8539 22.0263C21.4351 21.4679 21.1908 20.3163 20.8884 19.0833C20.5627 17.7922 20.3998 16.9779 20.0044 15.1982C20.0044 15.1982 19.6089 15.2098 19.4344 15.2215C19.1901 15.2331 19.004 15.2564 18.8062 15.2796C18.8062 15.2796 19.0389 18.9437 19.1436 20.5025C19.2483 22.131 19.446 24.8878 19.6205 26.9699C19.6205 26.9699 19.9578 27.0281 20.5162 27.0513C21.0978 27.0862 21.3653 27.0862 21.3653 27.0862C21.6096 26.1673 21.9004 24.8994 22.2377 24.3527C22.5169 23.9107 22.9357 23.8641 23.1799 23.8292C23.5522 23.7827 23.8779 23.7711 24.0174 23.7711C24.1687 23.7711 24.4827 23.7711 24.855 23.8292C25.0992 23.8641 25.518 23.9107 25.7972 24.3527C26.1345 24.8994 26.4369 26.1673 26.6696 27.0862C26.6696 27.0862 26.9255 27.0862 27.5071 27.0513C28.0654 27.0164 28.4028 26.9699 28.4028 26.9699C28.5772 24.8878 28.775 22.1426 28.8797 20.5025C28.9844 18.9554 29.217 15.2796 29.217 15.2796C29.0193 15.2564 28.8215 15.2331 28.5889 15.2215C28.4144 15.2098 28.0189 15.1982 28.0189 15.1982Z" fill="black"/>
<path d="M32.6369 17.3617C32.4042 15.0353 30.8455 14.5467 29.4846 14.3141C28.7983 14.1977 27.5769 14.1047 26.7975 14.0698C26.1112 14.0233 24.506 14 24.0175 14C23.5289 14 21.9237 14.0233 21.2374 14.0698C20.458 14.1047 19.2367 14.1977 18.5504 14.3141C17.1894 14.5467 15.6307 15.0353 15.398 17.3617C15.3283 18.0015 15.3166 18.8273 15.3283 19.7114C15.3515 21.1887 15.4795 22.1774 15.5493 22.8753C15.5958 23.3522 15.7935 24.7714 16.0494 25.5042C16.3984 26.5162 16.7125 26.807 17.0847 27.1094C17.7594 27.6561 18.8761 27.8306 19.1087 27.8771C20.365 28.0981 22.9008 28.1447 24.0291 28.1447C25.1458 28.1447 27.6932 28.1098 28.9495 27.8771C29.1821 27.8306 30.2988 27.6678 30.9735 27.1094C31.3457 26.807 31.6598 26.5162 32.0087 25.5042C32.2646 24.7714 32.4624 23.3406 32.5089 22.8753C32.5787 22.189 32.7067 21.1887 32.7299 19.7114C32.7183 18.8157 32.695 17.9898 32.6369 17.3617ZM31.7761 21.2701C31.6365 23.1312 31.4737 24.2479 31.241 25.0505C31.0316 25.7601 30.7757 26.2254 30.4035 26.5627C29.7754 27.1327 28.9146 27.249 28.4028 27.3304C27.3094 27.4933 25.4598 27.5514 24.0175 27.5514C22.5634 27.5514 20.7256 27.4933 19.6321 27.3304C19.1203 27.249 18.2596 27.1327 17.6314 26.5627C17.2592 26.2254 17.0033 25.7485 16.7939 25.0505C16.5613 24.2479 16.3868 23.1312 16.2588 21.2701C16.1774 20.1534 16.189 18.3388 16.317 17.3617C16.4915 15.896 17.2127 15.1632 18.7597 14.8957C19.4809 14.7677 20.458 14.6747 21.377 14.6281C22.1214 14.5816 23.3312 14.5583 24.0175 14.5583C24.6921 14.5467 25.9135 14.5816 26.6463 14.6281C27.5653 14.6747 28.5424 14.7677 29.2636 14.8957C30.8106 15.1748 31.5318 15.9077 31.7179 17.3617C31.8459 18.3272 31.8575 20.1418 31.7761 21.2701Z" fill="black"/>
</svg>
