<svg width="48" height="48" viewBox="0 0 48 48" fill="none" xmlns="http://www.w3.org/2000/svg">
<path fill-rule="evenodd" clip-rule="evenodd" d="M27.3499 26.0377C27.5935 27.2969 26.9336 28.3427 26.3853 29.3579C25.7762 30.3024 24.7709 31.1141 23.5627 30.9927C20.8513 30.9521 18.2013 30.5358 15.7438 29.7943C15.6323 29.7639 15.5207 29.6926 15.4596 29.5912C15.4088 29.449 15.4801 29.3169 15.5814 29.2258C17.8256 27.4081 20.4961 26.5656 23.1361 25.6818C24.1209 25.3976 25.1671 25.0929 26.2737 25.2352C26.7302 25.2963 27.1871 25.6112 27.3499 26.0377ZM36.6002 20.6563C37.8593 21.6919 38.9966 23.1035 38.6107 24.8093C37.9811 27.3276 35.2397 28.6679 33.0566 29.5206C31.8684 29.9168 30.6704 30.3232 29.3706 30.445C29.2894 30.4348 29.1574 30.4549 29.1369 30.3331L29.1673 30.1911C31.0153 28.1093 32.4164 25.7743 33.6455 23.4083C34.214 22.3419 34.7422 21.2456 35.2295 20.169C35.3004 20.0878 35.3718 20.0472 35.453 20.0168C35.9095 20.0571 36.2347 20.4126 36.6002 20.6563ZM18.8811 17.9756L18.8404 18.1278C16.17 21.1637 14.4134 24.6872 12.7482 28.1902C12.4234 28.4949 12.1084 28.0885 11.8139 27.9564C10.3313 26.9819 8.991 25.4078 9.37692 23.5396C9.99624 21.1029 12.5042 19.8032 14.5963 18.9201C15.8349 18.453 17.1248 18.0773 18.4852 17.864C18.6275 17.8637 18.8101 17.8436 18.8811 17.9756ZM32.1325 18.4629C32.2847 18.5441 32.4676 18.5745 32.559 18.7267C32.6403 18.8993 32.4778 19.0109 32.3864 19.1228C30.2844 20.7675 27.8781 21.6817 25.4206 22.4839C24.1714 22.7886 22.9123 23.3369 21.5215 23.0322C21.1963 22.951 20.9021 22.7377 20.7192 22.4228C20.3739 21.4684 20.841 20.4734 21.2471 19.6408C21.7852 18.5949 22.74 17.3662 24.0598 17.3461C26.9029 17.3256 29.5836 17.7521 32.1325 18.4629ZM35.6458 18.5441C37.7986 19.722 40.2356 21.7932 39.9817 24.5551C39.6872 27.114 37.301 28.901 35.1687 29.9775C28.9441 32.9527 20.2016 33.0438 13.7739 30.4447C11.6007 29.5411 9.16366 27.9875 8.24951 25.6518C7.54898 23.7328 8.4017 21.7325 9.83382 20.4024C12.8291 17.6811 16.6471 16.7472 20.5769 16.2088C24.8419 15.6908 29.3297 16.1477 33.1477 17.4576C34.0007 17.7726 34.8435 18.1179 35.6458 18.5441Z" fill="#003984"/>
</svg>
