<svg width="48" height="48" viewBox="0 0 48 48" fill="none" xmlns="http://www.w3.org/2000/svg">
<g clip-path="url(#clip0_0_24587)">
<path d="M34.6877 24.888C34.6617 26.3235 34.9718 27.0839 36.1551 27.0839C37.3365 27.0839 37.5061 25.7886 37.5061 24.803C37.5061 23.8168 37.2819 22.8593 36.0406 22.8593C35.2792 22.8593 34.717 23.451 34.6877 24.888ZM32.2937 30.8867V21.1697H34.717C34.717 21.1697 34.717 21.3104 34.717 21.5639C34.717 22.0896 34.9291 21.8728 35.0999 21.6679C35.1285 21.6337 35.6686 20.9726 36.8849 20.9726C38.0975 20.9726 39.984 21.8173 39.984 24.803C39.984 27.1125 38.8585 28.8021 36.9148 28.8021C35.8438 28.8021 35.2246 28.3804 35.083 28.2102C34.9412 28.0424 34.7443 28.0131 34.7443 28.2102C34.7443 28.4077 34.7443 30.8867 34.7443 30.8867H32.2937Z" fill="#231F20"/>
<path d="M13.5639 18.016H16.1834C16.1834 18.016 16.1834 23.7047 16.1834 24.888C16.1834 26.0701 15.6759 28.5493 12.0432 28.5493C8.41015 28.5493 8.01599 26.2385 8.01599 24.9439V23.6767H10.5509C10.5509 23.6767 10.5509 24.1554 10.5509 24.9153C10.5509 25.6757 11.0581 26.3794 12.0151 26.3794C12.9725 26.3794 13.5639 25.8446 13.5639 24.9439C13.5639 24.0427 13.5639 18.016 13.5639 18.016Z" fill="#231F20"/>
<path d="M21.6616 23.8456C21.6616 23.1407 21.2681 22.4649 20.3668 22.4649C19.4937 22.4649 19.1837 23.0839 19.1837 23.8456H21.6616ZM20.1142 20.8881C22.1713 20.8881 23.973 21.6764 23.973 25.3097H19.1011C19.1011 26.4644 19.5793 26.9434 20.4242 26.9434C21.2694 26.9434 21.5508 26.2669 21.5508 26.2669H23.9455C23.9455 27.3093 22.5089 28.7175 20.3397 28.6896C17.862 28.6896 16.6507 26.8588 16.6507 24.9717C16.6507 23.0839 17.7202 20.8881 20.1142 20.8881Z" fill="#231F20"/>
<path d="M29.45 23.8456C29.45 23.1407 29.0561 22.4649 28.1548 22.4649C27.2822 22.4649 26.9715 23.0839 26.9715 23.8456H29.45ZM27.9027 20.8881C29.9595 20.8881 31.7608 21.6764 31.7608 25.3097H26.8891C26.8891 26.4644 27.3678 26.9434 28.2134 26.9434C29.0576 26.9434 29.3395 26.2669 29.3395 26.2669H31.7341C31.7341 27.3093 30.2973 28.7175 28.1288 28.6896C25.6498 28.6896 24.4385 26.8588 24.4385 24.9717C24.4385 23.0839 25.5093 20.8881 27.9027 20.8881Z" fill="#231F20"/>
<path d="M38.38 29.7218C38.38 29.337 38.6933 29.0243 39.0795 29.0243C39.4643 29.0243 39.7769 29.337 39.7769 29.7218C39.7769 30.106 39.4643 30.4206 39.0795 30.4206C38.6933 30.4206 38.38 30.106 38.38 29.7218ZM38.2994 29.7218C38.2994 30.1524 38.648 30.5019 39.0795 30.5019C39.5081 30.5019 39.8587 30.1524 39.8587 29.7218C39.8587 29.2912 39.5081 28.9417 39.0795 28.9417C38.648 28.9417 38.2994 29.2912 38.2994 29.7218Z" fill="#231F20"/>
<path d="M39.3919 30.1207L39.2299 29.7383C39.2813 29.7205 39.2984 29.7079 39.3257 29.6786C39.3613 29.6405 39.3836 29.5802 39.3836 29.5256C39.3836 29.3877 39.2776 29.2938 39.1239 29.2938H38.7987V30.1207H38.8952V29.7625H39.1302L39.2845 30.1207H39.3919ZM38.8926 29.6786V29.3838H39.1219C39.2178 29.3838 39.2787 29.4384 39.2787 29.523C39.2787 29.619 39.2141 29.6786 39.1085 29.6786H38.8926Z" fill="#231F20"/>
</g>
<defs>
<clipPath id="clip0_0_24587">
<rect width="32" height="12.9027" fill="white" transform="translate(8 18)"/>
</clipPath>
</defs>
</svg>
