<svg width="48" height="48" viewBox="0 0 48 48" fill="none" xmlns="http://www.w3.org/2000/svg">
<g clip-path="url(#clip0_0_24709)">
<path d="M26.5645 26.6649C26.5645 26.7257 26.5837 26.7609 26.619 26.7609C26.6487 26.7609 26.6734 26.7449 26.6958 26.7289L36.6692 20.256C36.8377 20.1382 37.0396 20.0776 37.2451 20.0831H39.4368C39.7728 20.0831 40 20.3071 40 20.6431V24.8282C40 25.3338 39.888 25.6282 39.4401 25.8969L36.7812 27.4968C36.7546 27.5152 36.7232 27.5288 36.6916 27.5288C36.6599 27.5288 36.6276 27.5032 36.6276 27.4104V22.5277C36.6276 22.4701 36.6117 22.4317 36.5732 22.4317C36.5451 22.4317 36.5185 22.4461 36.4964 22.4638L29.2075 27.1993C29.0411 27.3113 28.8459 27.3721 28.6475 27.3689H23.816C23.4768 27.3689 23.2528 27.145 23.2528 26.8058V20.7744C23.2528 20.7296 23.2337 20.6881 23.1952 20.6881C23.1672 20.6881 23.1407 20.7027 23.1184 20.7201L18.3094 23.606C18.2614 23.6381 18.2486 23.6605 18.2486 23.6829C18.2486 23.702 18.2583 23.7212 18.2902 23.7565L21.7267 27.1897C21.7714 27.2345 21.8035 27.2697 21.8035 27.3081C21.8035 27.3401 21.7523 27.3657 21.6915 27.3657H18.5878C18.3446 27.3657 18.1558 27.3305 18.0246 27.1993L15.9416 25.1196C15.9257 25.1005 15.9027 25.0875 15.8777 25.0875C15.8551 25.0875 15.8331 25.0952 15.8137 25.1067L12.3325 27.1993C12.1213 27.3274 11.9773 27.3625 11.7693 27.3625H8.56645C8.22412 27.3657 8.00009 27.1386 8.00009 26.8026V22.6973C8.00009 22.1886 8.11206 21.8974 8.56324 21.6287L11.2382 20.0225C11.259 20.0083 11.2835 20.0006 11.3086 20.0001C11.3502 20.0001 11.3726 20.0417 11.3726 20.1345V25.6315C11.3726 25.6891 11.3853 25.7146 11.427 25.7146C11.4553 25.7146 11.4814 25.6987 11.507 25.6826L20.5429 20.2463C20.7157 20.1279 20.9269 20.0704 21.1381 20.0799H26.0016C26.3376 20.0799 26.5647 20.3039 26.5647 20.6399L26.5615 26.6649H26.5645Z" fill="#131E29"/>
</g>
<defs>
<clipPath id="clip0_0_24709">
<rect width="32" height="7.52882" fill="white" transform="translate(8 20)"/>
</clipPath>
</defs>
</svg>
