<svg width="48" height="48" viewBox="0 0 48 48" fill="none" xmlns="http://www.w3.org/2000/svg">
<g clip-path="url(#clip0_0_1118)">
<path d="M26.5084 24.5728L25.1135 27.3121H25.0845L25.0139 24.5728H23.8471L23.8016 24.6713L23.9017 24.7324C23.9983 24.8004 24.0253 24.8695 24.0378 25.0596L24.1959 28.3838H25.4958L27.5937 24.5728H26.5084ZM22.3561 26.5456C22.2256 26.9203 22.123 27.1615 21.9714 27.3206C21.8523 27.4457 21.6952 27.5353 21.3335 27.5353C21.0498 27.5353 20.8917 27.4192 20.8917 27.1995C20.8897 27.0579 20.9282 26.8428 21.0798 26.424C21.2109 26.0498 21.3134 25.8086 21.4655 25.6495C21.5831 25.5244 21.7407 25.4343 22.103 25.4343C22.3867 25.4343 22.5443 25.5504 22.5438 25.7691C22.5468 25.9127 22.5082 26.1278 22.3561 26.5456ZM22.2956 24.5257H22.1745C21.4565 24.5257 21.0463 24.7194 20.7095 25.0771C20.2908 25.5199 19.8975 26.7172 19.905 27.3506C19.913 27.9966 20.3308 28.4444 21.2089 28.4444H21.3375C22.0574 28.4444 22.4677 28.2507 22.8044 27.893C23.2227 27.4492 23.608 26.2524 23.6005 25.6195C23.592 24.974 23.1742 24.5257 22.2956 24.5257ZM18.7702 25.9562C18.7047 26.1188 18.6326 26.1578 18.5381 26.1964C18.4745 26.2214 18.3399 26.2304 18.2104 26.2304H17.7085L17.9817 25.4428H18.5881C18.7697 25.4428 18.8438 25.5374 18.8463 25.645C18.8473 25.7135 18.8158 25.8391 18.7702 25.9562ZM18.6802 24.5728H17.0346L17.0015 24.6713L17.0681 24.7369C17.1381 24.8059 17.1356 24.888 17.0741 25.0641L15.9243 28.3838H16.975L17.4243 27.0659L17.7801 27.0664L18.1753 28.3838H19.231L18.7347 27.0354C19.0229 26.9889 19.1675 26.9063 19.3121 26.7777C19.5102 26.5966 19.6473 26.3425 19.7609 25.9682C19.927 25.4253 19.8264 25.1151 19.7199 24.956C19.5733 24.7369 19.2646 24.5728 18.6802 24.5728ZM29.7036 26.8553L29.9948 26.0583H28.6554L28.863 25.4499H30.314L30.6327 24.5703H27.8934L27.8553 24.6823L27.9209 24.7469C27.9914 24.8154 27.9884 24.897 27.9274 25.0741L26.7866 28.3823H29.3463L29.6556 27.4967H28.1615L28.3817 26.8553H29.7036ZM32.7771 25.9562C32.7116 26.1188 32.6386 26.1578 32.5455 26.1964C32.4804 26.2214 32.3479 26.2304 32.2183 26.2304H31.7169L31.9876 25.4428H32.595C32.7756 25.4428 32.8507 25.5374 32.8522 25.645C32.8542 25.7135 32.8217 25.8391 32.7771 25.9562ZM32.6856 24.5728H31.0405L31.0085 24.6713L31.0745 24.7369C31.1451 24.8059 31.1415 24.888 31.081 25.0641L29.9302 28.3838H30.9824L31.4312 27.0664H31.7865L32.1822 28.3838H33.237L32.7416 27.0354C33.0293 26.9889 33.1739 26.9063 33.318 26.7777C33.5166 26.5966 33.6542 26.3425 33.7678 25.9682C33.9339 25.4253 33.8334 25.1151 33.7273 24.956C33.5807 24.7369 33.2715 24.5728 32.6856 24.5728ZM34.843 29.6872C31.9566 31.1787 28.1065 32.0003 24.0002 32.0003C19.8945 32.0003 16.0449 31.1787 13.158 29.6872C10.3816 28.2522 8.85157 26.3835 8.85157 24.4262C8.85157 22.4674 10.3816 20.5986 13.158 19.1646C16.0449 17.6736 19.8945 16.8511 24.0002 16.8511C28.1065 16.8511 31.9566 17.6736 34.843 19.1646C37.6199 20.5986 39.1484 22.4674 39.1484 24.4262C39.1484 26.3835 37.6199 28.2522 34.843 29.6872ZM35.2338 18.4081C32.2278 16.8551 28.2386 16 24.0002 16C19.7619 16 15.7722 16.8551 12.7672 18.4081C10.987 19.3282 8 21.3336 8 24.4262C8 27.5172 10.987 29.5231 12.7672 30.4432C15.7717 31.9963 19.7609 32.8513 24.0002 32.8513C28.2391 32.8513 32.2283 31.9963 35.2338 30.4432C37.014 29.5231 40 27.5177 40 24.4262C40 21.3331 37.014 19.3282 35.2338 18.4081ZM34.4388 28.9052C31.3332 30.5093 27.4701 31.1192 24.0002 31.1192C20.5299 31.1192 16.6678 30.5093 13.5612 28.9052C11.9176 28.0551 9.73266 26.4891 9.73266 24.4262C9.73266 22.3613 11.9171 20.7967 13.5612 19.9472C16.6678 18.3431 20.5299 17.7332 24.0002 17.7332C27.4701 17.7332 31.3332 18.3421 34.4388 19.9472C36.0839 20.7967 38.2678 22.3613 38.2678 24.4262C38.2678 26.4901 36.0834 28.0551 34.4388 28.9052ZM34.5999 19.6344C31.4468 18.0038 27.5206 17.3799 24.0002 17.3799C20.4794 17.3799 16.5542 18.0044 13.3996 19.6344C11.6284 20.5491 9.38043 22.2002 9.38043 24.4262C9.38043 26.6502 11.6284 28.3023 13.3996 29.2179C16.5542 30.847 20.4804 31.4714 24.0002 31.4714C27.5206 31.4714 31.4468 30.848 34.5999 29.2179C36.3721 28.3023 38.6201 26.6502 38.6201 24.4262C38.6201 22.2002 36.3726 20.5491 34.5999 19.6344ZM16.0469 25.0641L13.1715 26.0097L12.8202 26.9734H15.3559L15.6862 26.0653H13.9285L15.9238 25.3898L16.0469 25.0641ZM27.4886 20.8418H27.9054C28.1891 20.8418 28.3457 20.9368 28.3492 21.1565C28.3517 21.2981 28.3136 21.4922 28.1665 21.91C28.0365 22.2837 27.9324 22.5004 27.7848 22.659C27.6662 22.7841 27.5086 22.8396 27.1469 22.8396H26.7986L27.4886 20.8418ZM26.575 20.429L25.4372 23.7487H27.1158C27.8353 23.7487 28.2461 23.5891 28.5793 23.2319C28.9976 22.7896 29.3799 21.6388 29.3674 21.0054C29.3548 20.3589 28.9376 19.9382 28.0595 19.9382H26.5345L26.5024 20.0362L26.5685 20.1008C26.6385 20.1703 26.636 20.2524 26.575 20.429ZM32.9092 21.3046H30.3735L30.0433 22.2117H31.8005L29.8047 22.8891L29.6816 23.2139L32.557 22.2682L32.9092 21.3046ZM21.5761 23.7467H22.5318L23.3653 21.2816L23.8527 23.7467H24.8093L26.1132 19.9366L25.1135 19.9382L24.417 22.009L24.0193 19.9382H22.6719L22.6388 20.0362L22.7049 20.1008C22.7759 20.1703 22.7724 20.2524 22.7119 20.429L21.5761 23.7467ZM14.7245 23.7487L17.3248 23.7477L17.639 22.8396H16.1275L17.1261 19.9382H15.8223L15.7897 20.0362L15.8548 20.1008C15.9258 20.1703 15.9228 20.2524 15.8618 20.429L14.7245 23.7487ZM20.2567 20.9914H20.2908L20.3088 22.1421H19.6073L20.2567 20.9914ZM17.5944 23.7467H18.7007L19.18 22.9046H20.3253L20.3368 23.7467H21.3405L21.1238 19.9382H19.6213L19.5878 20.0362L19.6363 20.0847C19.7154 20.1623 19.6828 20.2739 19.3902 20.7382L17.5944 23.7467Z" fill="black"/>
</g>
<defs>
<clipPath id="clip0_0_1118">
<rect width="32" height="16.8513" fill="white" transform="translate(8 16)"/>
</clipPath>
</defs>
</svg>
