<svg width="48" height="48" viewBox="0 0 48 48" fill="none" xmlns="http://www.w3.org/2000/svg">
<g clip-path="url(#clip0_0_24712)">
<path fill-rule="evenodd" clip-rule="evenodd" d="M31.0544 10.5236C35.894 13.0688 39.2 18.1432 39.2 23.9924C39.2 29.8416 35.894 34.932 31.0544 37.4616V35.7224C32.9052 34.6152 34.4708 33.066 35.61 31.2324L31.0544 29.3832V26.5692L36.0524 30.474C37.0964 28.5452 37.6816 26.3476 37.6816 23.992C37.6816 19.028 35.024 14.6652 31.0544 12.262V10.5236ZM24.016 8.80042C26.5468 8.80042 28.9348 9.41722 31.0544 10.5236V12.2628C29.1088 11.0924 26.8312 10.3972 24.4272 10.318L26.1668 22.7596L31.0544 26.5696V29.3836L23.984 26.522L16.9612 29.3992V26.6008L21.8804 22.7592L23.6044 10.3176C21.1684 10.3968 18.9068 11.0924 16.9612 12.262V10.5236C19.0652 9.41722 21.4692 8.80042 24.016 8.80042ZM31.0544 37.4616C28.9348 38.568 26.5464 39.2 24.016 39.2C21.4696 39.2 19.0656 38.568 16.9616 37.4772V35.7224C19.018 36.9708 21.4376 37.6824 24.016 37.6824C26.5784 37.6824 28.9828 36.9708 31.0544 35.7224V37.4616ZM16.9616 37.4772C12.1056 34.932 8.79999 29.8416 8.79999 23.9924C8.79999 18.1432 12.1056 13.0688 16.9616 10.5236V12.2628C12.9756 14.6656 10.3184 19.0128 10.3184 23.9924C10.3184 26.3476 10.9196 28.5772 11.9636 30.5056L16.9616 26.6008V29.3992L12.422 31.264C13.5608 33.0828 15.1108 34.6156 16.9616 35.7224V37.4772Z" fill="#4D4D4D"/>
</g>
<defs>
<clipPath id="clip0_0_24712">
<rect width="32" height="32" fill="white" transform="translate(8 8)"/>
</clipPath>
</defs>
</svg>
