<svg width="48" height="48" viewBox="0 0 48 48" fill="none" xmlns="http://www.w3.org/2000/svg">
<g clip-path="url(#clip0_0_924)">
<path d="M23.9999 17.0024C22.8214 17.0026 21.6618 17.2997 20.6284 17.8663C19.5949 18.4329 18.7208 19.2507 18.0868 20.2442H8L9.00416 21.2484H17.5628C17.4004 21.6263 17.2715 22.0178 17.1777 22.4183H10.1741L11.166 23.4102H17.0153C16.9961 23.6124 16.9857 23.8153 16.9841 24.0184C16.9859 24.206 16.9953 24.3934 17.0122 24.5802H12.336L13.3279 25.5721H17.1647C17.2537 25.9721 17.3775 26.3636 17.5348 26.742H14.4978L15.5019 27.7461H18.0663C18.6966 28.7512 19.5716 29.58 20.6093 30.155C21.647 30.7301 22.8136 31.0326 23.9999 31.0343C25.1863 31.0326 26.353 30.7301 27.3907 30.1551C28.4284 29.58 29.3034 28.7512 29.9337 27.7461H32.4981L33.5022 26.742H30.4652C30.6225 26.3636 30.7463 25.9721 30.8353 25.5721H34.6721L35.664 24.5802H30.9878C31.0047 24.3934 31.0141 24.206 31.0159 24.0184C31.0144 23.8153 31.004 23.6124 30.9848 23.4102H36.834L37.8259 22.4183H30.8223C30.7285 22.0178 30.5996 21.6263 30.4372 21.2484H38.9958L40 20.2442H29.9132C29.2792 19.2507 28.4051 18.4329 27.3716 17.8663C26.3381 17.2997 25.1785 17.0026 23.9999 17.0024ZM23.9999 17.9534C24.7964 17.9534 25.5851 18.1103 26.3209 18.4151C27.0567 18.7199 27.7253 19.1666 28.2885 19.7298C28.8517 20.293 29.2985 20.9616 29.6032 21.6974C29.908 22.4333 30.0649 23.2219 30.0649 24.0184C30.0649 24.8149 29.908 25.6035 29.6032 26.3394C29.2985 27.0752 28.8517 27.7438 28.2885 28.307C27.7253 28.8702 27.0567 29.3169 26.3209 29.6217C25.5851 29.9265 24.7964 30.0834 23.9999 30.0834C22.3914 30.0834 20.8488 29.4444 19.7114 28.307C18.574 27.1696 17.935 25.6269 17.935 24.0184C17.935 22.4099 18.574 20.8672 19.7114 19.7298C20.8488 18.5924 22.3914 17.9534 23.9999 17.9534ZM19.1752 22.4465V25.5902H19.8309V23.1156L20.5224 25.5902H21.2019L21.8958 23.1156V25.5902H22.5515V22.4465H21.4928L20.8658 24.5909L20.2315 22.4465H19.1752ZM23.2358 22.4465V25.5902H23.9416V22.4465H23.2358ZM24.6187 22.4465V25.5902H25.2744V23.5402L26.6836 25.5902H27.3918V22.4465H26.7361V24.5458L25.3055 22.4465H24.6187ZM28.119 22.4465V25.5902H28.8248V22.4465H28.119Z" fill="#120A08"/>
</g>
<defs>
<clipPath id="clip0_0_924">
<rect width="32" height="14.0367" fill="white" transform="translate(8 17)"/>
</clipPath>
</defs>
</svg>
