<svg width="48" height="48" viewBox="0 0 48 48" fill="none" xmlns="http://www.w3.org/2000/svg">
<path fill-rule="evenodd" clip-rule="evenodd" d="M12.464 35.408V10.072C12.464 10.072 12.552 8.656 11.8 8.176V8H21.56C22.4103 7.99965 23.2589 8.07461 24.096 8.224C25.3315 8.44297 26.4817 9.00108 27.4184 9.83598C28.355 10.6709 29.0411 11.7497 29.4 12.952C29.7778 14.1839 29.8632 15.487 29.6493 16.7576C29.4354 18.0283 28.9282 19.2316 28.168 20.272C27.4323 21.2217 26.568 22.0645 25.6 22.776C25.384 22.928 25.256 23.008 25.032 23.152C26.3237 25.1033 27.374 27.2039 28.16 29.408C28.8304 31.3323 29.3362 33.3101 29.672 35.32C29.88 36.984 30.376 37.152 30.472 37.184V37.368H24.632V37.184C24.808 37.088 26.392 36.384 26.4 33.928C26.3337 31.8502 25.9116 29.7991 25.152 27.864C24.673 26.5386 24.1037 25.2475 23.448 24C22.323 24.4526 21.1579 24.7981 19.968 25.032C19.208 25.176 18.44 25.296 17.488 25.4C16.536 25.504 15.888 25.552 15.368 25.584V35.424C15.368 35.64 15.424 36.8 16.168 37.2V37.384H11.664V37.2C12.392 36.816 12.464 35.64 12.464 35.424M21.688 9.664H15.344V23.76C16.7179 23.6858 18.0816 23.4795 19.416 23.144C24.04 21.776 26.248 18.552 26.28 14.752C26.28 12.544 25.48 11.192 24.68 10.472C24.1612 10.0727 23.5455 9.81864 22.896 9.736C22.5064 9.68183 22.1133 9.65776 21.72 9.664M21.08 25.216V26.704C22.0892 26.6426 23.0937 26.5197 24.088 26.336C24.36 26.96 24.6 27.552 24.768 28.008V28.072C24.264 28.16 23.728 28.232 23.168 28.296C22.368 28.392 21.568 28.44 21.096 28.472V38.072C21.096 38.28 21.144 39.416 21.896 39.808V40H17.472V39.824C18.184 39.448 18.272 38.296 18.272 38.088V25.728C19.2216 25.6064 20.1642 25.4355 21.096 25.216M26.912 25.408C28.3753 24.7709 29.6189 23.7176 30.488 22.379C31.3571 21.0405 31.8134 19.4759 31.8 17.88C31.8 15.712 31.056 14.4 30.2 13.68L30.048 13.6C29.984 13.344 29.92 13.096 29.84 12.856C29.6773 12.3704 29.4739 11.8994 29.232 11.448C29.384 11.448 29.528 11.496 29.664 11.52C30.8747 11.737 32.0018 12.2845 32.9209 13.1019C33.84 13.9193 34.5152 14.9749 34.872 16.152C35.2454 17.3633 35.3307 18.645 35.1209 19.8951C34.9112 21.1452 34.4123 22.3289 33.664 23.352C32.9415 24.2808 32.0934 25.1047 31.144 25.8C30.936 25.952 30.808 26.032 30.592 26.176C31.8566 28.0865 32.8829 30.1444 33.648 32.304C34.3041 34.1905 34.8045 36.1277 35.144 38.096C35.336 39.696 35.824 39.856 35.944 39.888V40H30.2V39.824C30.376 39.736 31.928 39.096 31.936 36.672C31.8778 34.6352 31.4664 32.624 30.72 30.728C30.2338 29.434 29.6647 28.1727 29.016 26.952C28.728 27.08 28.312 27.224 27.856 27.376C27.56 26.688 27.256 26.064 26.912 25.432M25.616 12.888H21.08V22.04C20.5007 22.3116 19.9017 22.5389 19.288 22.72C18.9485 22.8203 18.604 22.9031 18.256 22.968V13.288C18.256 13.288 18.336 11.904 17.56 11.432V11.256H24.816C25.19 11.7286 25.4624 12.2733 25.616 12.856" fill="black"/>
</svg>
