<svg width="48" height="48" viewBox="0 0 48 48" fill="none" xmlns="http://www.w3.org/2000/svg">
<path d="M22.9314 8.03632C31.7479 7.44633 39.3737 14.1151 39.9637 22.9314C40.5537 31.7481 33.8848 39.3734 25.0682 39.9637C16.2514 40.5537 8.62589 33.8849 8.0359 25.0683C7.62636 18.9528 10.747 13.1406 16.0709 10.1033C18.1723 8.90518 20.5177 8.19828 22.9314 8.03632ZM23.4146 9.39644C15.3488 9.71708 9.07032 16.5156 9.39127 24.5809C9.71192 32.6465 16.5103 38.9248 24.5761 38.6042C32.6415 38.2832 38.92 31.485 38.5994 23.4194C38.404 18.5075 35.7526 14.0229 31.5427 11.4843C29.0956 10.0067 26.2679 9.28041 23.4116 9.39644H23.4146Z" fill="#0D392E"/>
<path d="M20.4451 11.6766C21.9792 11.153 23.5941 10.93 25.2069 11.0191C25.3763 11.0109 25.5451 11.0409 25.7021 11.107C27.4723 12.5622 28.8733 14.4412 29.7841 16.5817C30.7707 19.0516 31.1349 21.7402 30.8419 24.3955C30.6614 26.327 30.2145 28.2215 29.5145 30.0218H30.7745C30.8976 29.6915 31.0089 29.3582 31.1379 29.031C32.6048 29.2237 33.9656 29.923 35 31.0155C33.9694 32.1153 32.6051 32.8158 31.1349 33C31.0148 32.6758 30.8946 32.3547 30.7833 32.0305C26.9211 32.0305 23.0561 32.0305 19.1939 32.0305C19.0005 32.0438 18.8147 32.1132 18.6577 32.2304C18.2328 32.4516 17.8137 32.6819 17.3888 32.9031C17.2332 32.9773 17.0615 33.0085 16.8907 32.9939C16.3925 32.9939 15.8944 32.9939 15.3933 32.9939C14.3416 31.8345 13.4904 30.4971 12.8762 29.0401H16.29C16.5329 29.0144 16.7784 29.041 17.0108 29.1189C17.5773 29.3713 18.144 29.627 18.7104 29.8854C19.1382 30.146 19.651 29.9915 20.1228 30.0308C20.0504 28.7789 19.7006 27.5607 19.1001 26.4709C18.4619 25.4171 17.5732 24.5503 16.5185 23.9531C15.105 23.1672 13.58 22.6179 12 22.3262C12.2107 20.5998 12.759 18.9362 13.6117 17.4361C14.7234 17.6976 15.8167 18.0357 16.8848 18.4481C18.0306 18.8698 19.1151 19.4518 20.1082 20.1781L20.4276 20.0175C19.7858 19.277 19.0629 18.6162 18.2738 18.0481C17.1512 17.2016 15.9767 16.4315 14.7574 15.7425C15.7821 14.4479 17.0413 13.3726 18.4643 12.5764C19.438 12.9872 20.3482 13.5438 21.166 14.2276C22.4093 15.2589 23.5633 16.4006 24.615 17.6391L25.0252 17.527C23.9703 15.2426 22.2912 13.3217 20.4451 11.6766ZM26.1534 25.3862C25.3361 25.6553 24.8843 26.5581 25.1445 27.4034C25.4047 28.2484 26.2779 28.7156 27.0955 28.4466C27.9128 28.1775 28.3643 27.2744 28.1044 26.4294C28.0068 26.1128 27.8166 25.8349 27.5599 25.6347C27.1573 25.3217 26.6337 25.2293 26.1534 25.3862Z" fill="#0D392E"/>
</svg>
