<svg width="48" height="48" viewBox="0 0 48 48" fill="none" xmlns="http://www.w3.org/2000/svg">
<g clip-path="url(#clip0_0_1239)">
<path d="M31.0287 22.9308C31.0287 22.9308 29.71 23.3119 27.1591 24.8794C24.8723 26.287 23.9756 27.2328 23.9756 27.2328L16.9206 22.3571C16.9206 22.3571 19.8886 20.1744 22.3686 21.8461L25.6953 24.1282L26.1011 23.8613L16.922 17.4305C16.922 17.4305 18.2412 17.0489 20.7906 15.4824C23.0788 14.0742 23.9756 13.128 23.9756 13.128L31.0301 18.0037C31.0301 18.0037 28.0625 20.1863 25.5821 18.5146L22.2554 16.2321L21.8496 16.4985L31.0287 22.9308Z" fill="#E20A17"/>
<path d="M25.5648 29.5821H20.1953V30.7762H22.7889L20.1039 33.2828V34.2832H25.5548V33.0844H22.8427L25.5648 30.584V29.5821Z" fill="#003399"/>
<path d="M17.0338 34.4035C19.1812 34.4035 19.7312 33.855 19.7312 32.6457V29.582H18.03V32.4625C18.03 32.9464 17.6161 33.2346 17.0338 33.2346C16.4282 33.2346 16.0386 32.9449 16.0386 32.4549V29.582H14.3374V32.6457C14.3374 33.855 14.8873 34.4035 17.0338 34.4035Z" fill="#003399"/>
<path d="M28.6821 34.4035C30.8295 34.4035 31.3794 33.855 31.3794 32.6457V29.582H29.6778V32.4625C29.6778 32.9464 29.2634 33.2346 28.6821 33.2346C28.0765 33.2346 27.6854 32.9449 27.6854 32.4549V29.582H25.9847V32.6457C25.9847 33.855 26.5346 34.4035 28.6821 34.4035Z" fill="#003399"/>
<path d="M39.872 29.5821H38.098V34.2832H39.872V29.5821Z" fill="#003399"/>
<path d="M37.8278 29.5821H35.4939L33.6052 31.2043V29.5821H31.8308V34.2832H33.6052V32.6158L35.3592 34.2832H37.7426L35.1485 31.8713L37.8278 29.5821Z" fill="#003399"/>
<path d="M10.1441 30.8811C10.1441 30.5176 10.6827 30.5057 10.8644 30.5057C11.0466 30.5057 11.4571 30.5785 11.7364 31.0366H13.7425C13.7425 30.1508 12.9029 29.4463 10.8706 29.4463C8.61325 29.4463 8.22886 30.4368 8.22886 31.0057C8.22886 32.0547 9.0414 32.362 10.8082 32.5504C10.9595 32.5661 11.8786 32.5228 11.8786 32.9648C11.8786 33.2921 11.362 33.3139 11.1717 33.3139C10.9828 33.3139 10.6294 33.283 10.3373 32.7631H8.12801C8.12801 33.7954 8.82399 34.3919 11.1684 34.3919C13.3277 34.3919 13.9009 33.5104 13.9009 32.8401C13.9009 32.1893 13.4542 31.5271 11.6132 31.2916C10.8454 31.1922 10.1441 31.1503 10.1441 30.8811Z" fill="#003399"/>
</g>
<defs>
<clipPath id="clip0_0_1239">
<rect width="32" height="21.5315" fill="white" transform="translate(8 13)"/>
</clipPath>
</defs>
</svg>
