<svg width="48" height="48" viewBox="0 0 48 48" fill="none" xmlns="http://www.w3.org/2000/svg">
<g clip-path="url(#clip0_0_1279)">
<path d="M24 14.1437C15.2458 14.1437 8.14792 18.7354 8.14792 24.3979C8.14792 30.0625 15.2458 34.6562 24 34.6562C32.7542 34.6562 39.8521 30.0646 39.8521 24.3979C39.8521 18.7312 32.7542 14.1437 24 14.1437ZM24 30.2542C22.6979 30.2542 21.6354 27.6896 21.5688 24.4625C22.3521 24.5312 23.1667 24.5687 24 24.5687C24.8333 24.5687 25.6479 24.5312 26.4313 24.4625C26.3646 27.6875 25.3021 30.2542 24 30.2542ZM21.7292 21.9C22.0833 19.6187 22.9667 18 24 18C25.0333 18 25.9167 19.6187 26.2708 21.9C25.5438 21.9646 24.7854 22 24 22C23.2146 22 22.4563 21.9646 21.7292 21.9ZM24 15.6271C22.3 15.6271 20.85 18.1729 20.3146 21.7271C17.0917 21.225 14.8417 20.0792 14.8417 18.7479C14.8417 16.9521 18.9417 15.4958 24 15.4958C29.0583 15.4958 33.1583 16.9521 33.1583 18.7479C33.1583 20.0792 30.9083 21.225 27.6854 21.7271C27.15 18.1729 25.7 15.6271 24 15.6271ZM10.4208 24.0146C10.4208 22.2771 11.0896 20.6458 12.2542 19.2458C12.2417 19.3437 12.2333 19.4437 12.2333 19.5437C12.2333 21.7333 15.5167 23.6 20.0979 24.2875C20.0938 24.4458 20.0938 24.6062 20.0938 24.7667C20.0938 28.8479 21.2375 32.3042 22.8188 33.4771C15.8708 33.0583 10.4208 28.9812 10.4208 24.0146ZM25.1813 33.4771C26.7625 32.3042 27.9062 28.8479 27.9062 24.7667C27.9062 24.6042 27.9042 24.4458 27.9021 24.2875C32.4813 23.6 35.7667 21.7354 35.7667 19.5437C35.7667 19.4437 35.7583 19.3437 35.7458 19.2458C36.9104 20.65 37.5792 22.2771 37.5792 24.0146C37.5792 28.9812 32.1292 33.0583 25.1813 33.4771Z" fill="#282830"/>
</g>
<defs>
<clipPath id="clip0_0_1279">
<rect width="32" height="20.8" fill="white" transform="translate(8 14)"/>
</clipPath>
</defs>
</svg>
