<svg width="48" height="48" viewBox="0 0 48 48" fill="none" xmlns="http://www.w3.org/2000/svg">
<path d="M24.0001 14.3394C26.6891 14.3394 29.0793 15.4348 30.8224 17.1778C32.6153 18.9207 33.6608 21.3606 33.6608 24.05C33.6608 26.6891 32.6153 29.1291 30.8224 30.8721C29.0795 32.615 26.6891 33.7106 24.0001 33.7106C21.3109 33.7106 18.9207 32.6152 17.1281 30.8721C15.3851 29.1291 14.2897 26.6892 14.2897 24.05C14.2897 21.3608 15.3851 18.9208 17.1281 17.1778C18.9207 15.4348 21.3109 14.3394 24.0001 14.3394ZM24.0001 14.4885C21.3609 14.4885 18.9707 15.584 17.2773 17.2774C15.5343 19.0202 14.4389 21.4106 14.4389 24.0498C14.4389 26.6889 15.5343 29.0793 17.2773 30.7723C18.9705 32.5152 21.3609 33.5611 24.0001 33.5611C26.6392 33.5611 29.0298 32.5154 30.7226 30.7723C32.4655 29.0793 33.5115 26.6889 33.5115 24.0498C33.5115 21.4106 32.4655 19.0202 30.7226 17.2774C29.0298 15.5842 26.6392 14.4885 24.0001 14.4885Z" fill="#C5C5C1"/>
<path d="M24.0001 9.21005C27.3864 9.21005 30.5239 10.3552 33.0133 12.2478L34.6565 10.6045L37.545 13.4926L35.9017 15.1858C37.7443 17.6759 38.7898 20.7131 38.7898 23.9998C38.7898 32.1667 32.1669 38.8396 24 38.8396C15.8331 38.8396 9.2099 32.1667 9.2099 23.9998C9.21005 15.8333 15.8333 9.21005 24.0001 9.21005ZM24.0001 12.6959C17.7754 12.6959 12.6959 17.7751 12.6959 23.9998C12.6959 30.2746 17.7754 35.3041 24.0001 35.3041C30.2249 35.3041 35.3041 30.2746 35.3041 23.9998C35.3041 17.7751 30.2249 12.6959 24.0001 12.6959Z" fill="url(#paint0_radial_0_1538)"/>
<path d="M24.0001 12.6459C27.1375 12.6459 29.9759 13.891 32.0673 15.9825C34.1088 18.0242 35.4037 20.8626 35.4037 24.0497C35.4037 27.187 34.1089 30.0251 32.0673 32.1169C29.9758 34.1583 27.1374 35.4533 24.0001 35.4533C20.8628 35.4533 17.9747 34.1585 15.9329 32.1169C13.8912 30.025 12.5964 27.1869 12.5964 24.0497C12.5964 20.8626 13.8912 18.0242 15.9329 15.9825C17.9747 13.891 20.8628 12.6459 24.0001 12.6459ZM24.0001 12.7956C20.9127 12.7956 18.0742 14.0404 16.0324 16.0821C13.9907 18.1236 12.7457 20.9125 12.7457 24.0498C12.7457 27.1372 13.9905 29.9756 16.0324 32.0174C18.0742 34.0091 20.9127 35.3039 24.0001 35.3039C27.0875 35.3039 29.9259 34.0091 31.9678 32.0174C34.0091 29.9756 35.2544 27.1372 35.2544 24.0498C35.2544 20.9125 34.0091 18.1236 31.9678 16.0821C29.9259 14.0404 27.0875 12.7956 24.0001 12.7956Z" fill="url(#paint1_linear_0_1538)"/>
<path d="M24.0002 9.11041C27.3864 9.11041 30.5734 10.2557 33.0635 12.1978L33.0135 12.2478C30.5239 10.3552 27.3864 9.21007 24.0003 9.21007C15.8335 9.21007 9.21022 15.8333 9.21022 23.9999C9.21022 32.1667 15.8335 38.8396 24.0003 38.8396C32.1672 38.8396 38.7901 32.1667 38.7901 23.9999C38.7901 20.7133 37.7446 17.6759 35.902 15.1858L35.9517 15.1359C37.7943 17.6259 38.8898 20.6635 38.8898 23.9999C38.8898 28.133 37.1968 31.8679 34.5076 34.557C31.8184 37.2462 28.1335 38.8896 24.0003 38.8896C19.9167 38.8896 16.182 37.2463 13.493 34.557C10.8038 31.8181 9.11057 28.133 9.11057 23.9999C9.11057 19.9165 10.8038 16.1818 13.493 13.4926C16.1818 10.8034 19.8668 9.11041 24.0002 9.11041Z" fill="url(#paint2_radial_0_1538)"/>
<path d="M24.0002 12.7456C30.2249 12.7456 35.3041 17.7752 35.3041 24.05C35.3041 30.2747 30.2249 35.3539 24.0002 35.3539C17.7754 35.3539 12.6959 30.2747 12.6959 24.05C12.6959 17.7751 17.7754 12.7456 24.0002 12.7456ZM24.0002 14.3394C18.6717 14.3394 14.3392 18.6719 14.3392 24.05C14.3392 29.3784 18.6717 33.7105 24.0002 33.7105C29.3286 33.7105 33.6606 29.3783 33.6606 24.05C33.6606 18.6717 29.3286 14.3394 24.0002 14.3394Z" fill="url(#paint3_radial_0_1538)"/>
<path opacity="0.67" d="M14.8268 27.0638H9.53159C9.66218 27.686 9.8432 28.2883 10.0495 28.8794H15.6451C15.3135 28.3078 15.037 27.7015 14.8268 27.0638Z" fill="url(#paint4_linear_0_1538)"/>
<path opacity="0.86" d="M33.1805 27.0638H38.4759C38.3451 27.686 38.1641 28.2883 37.9578 28.8794H32.3622C32.6939 28.3078 32.9705 27.7015 33.1805 27.0638Z" fill="url(#paint5_linear_0_1538)"/>
<path d="M38.7403 20.265C39.0888 21.4603 39.2381 22.7051 39.2381 23.9998C39.2381 25.3446 39.0391 26.6394 38.7403 27.8842H9.30972V27.8342H38.6904C39.0392 26.5894 39.1886 25.2946 39.1886 23.9502C39.1884 22.6554 39.0391 21.4106 38.7403 20.265Z" fill="#1A171B"/>
<path d="M9.26004 20.2155H38.7404C39.0392 21.4106 39.1884 22.6554 39.1884 23.9502C39.1884 25.2946 39.0392 26.5894 38.6903 27.8342H9.30971C8.96106 26.5894 8.7619 25.2946 8.7619 23.9502C8.7619 22.6554 8.96106 21.4106 9.26004 20.2155Z" fill="url(#paint6_radial_0_1538)"/>
<path d="M35.2544 9.60852L38.5411 12.8952L36.101 15.3351L36.2504 15.5343L34.5074 16.9289L33.9595 17.1281L37.5451 13.4926L34.6566 10.6045L31.0714 14.19L31.2209 13.6919L35.2544 9.60852Z" fill="url(#paint7_linear_0_1538)"/>
<path d="M31.9678 9.25974C34.8559 10.8035 37.1965 13.1938 38.7899 16.0322V9.25974H31.9678Z" fill="url(#paint8_radial_0_1538)"/>
<path d="M31.9678 9.25974C34.8559 10.8035 37.1965 13.1938 38.7899 16.0322" stroke="#B1B0A8" stroke-width="0.3402" stroke-linecap="round"/>
<path d="M31.9678 9.25974C34.8062 10.8035 37.1965 13.1938 38.7403 16.0322" stroke="#CBCAC4" stroke-width="0.2361" stroke-linecap="round"/>
<path d="M31.9179 9.25974C34.8063 10.8035 37.1465 13.1938 38.7403 16.0821" stroke="#E6E6E1" stroke-width="0.1324" stroke-linecap="round"/>
<path d="M31.9179 9.25974C34.7563 10.8535 37.1465 13.1938 38.6903 16.0821" stroke="white" stroke-width="0.0283" stroke-linecap="round"/>
<path d="M38.7899 9.11041C38.8399 9.11041 38.8896 9.16009 38.8896 9.25959H31.9679H31.8682C31.8682 9.16009 31.9179 9.11041 31.9679 9.11041H38.7899Z" fill="url(#paint9_linear_0_1538)"/>
<path d="M38.8896 16.0322C38.8896 16.1318 38.8399 16.1818 38.7899 16.1818L38.7404 16.0821V9.11041C38.7404 9.11041 38.7404 9.11041 38.7899 9.11041C38.8399 9.11041 38.8896 9.16009 38.8896 9.25959V16.0322Z" fill="url(#paint10_linear_0_1538)"/>
<path d="M9.31369 20.2728C9.01487 21.468 8.81555 22.7128 8.81555 24.0076C8.81555 24.1147 8.85243 24.7493 8.85502 24.8556L8.94142 25.8175C8.94005 25.7397 8.90226 24.172 8.90226 24.094C8.90226 22.7992 9.11803 21.5983 9.41685 20.4031L19.8492 20.3592L24.3519 20.2728H9.31369Z" fill="url(#paint11_linear_0_1538)"/>
<path d="M34.6566 25.847C33.3364 25.847 32.2621 25.0408 32.2621 24.0498C32.2621 23.0586 33.3364 22.2523 34.6566 22.2523C36.0049 22.2523 37.1017 23.0588 37.1017 24.0498C37.1016 25.0408 36.0047 25.847 34.6566 25.847ZM34.6566 22.7596C34.169 22.7596 33.8152 23.3023 33.8152 24.0498C33.8152 24.7569 34.1769 25.2901 34.6566 25.2901C35.1131 25.2901 35.4987 24.7221 35.4987 24.0498C35.4987 23.3384 35.1209 22.7596 34.6566 22.7596ZM19.5183 25.847C18.1978 25.847 17.1235 25.0408 17.1235 24.0498C17.1235 23.1025 18.2202 22.3023 19.5183 22.3023C20.8663 22.3023 21.9628 23.0863 21.9628 24.0498C21.9628 25.0408 20.8663 25.847 19.5183 25.847ZM19.5183 22.8091C19.0383 22.8091 18.6763 23.3425 18.6763 24.0498C18.6763 24.7569 19.0383 25.2901 19.5183 25.2901C19.9749 25.2901 20.3604 24.7221 20.3604 24.0498C20.3605 23.3774 19.9749 22.8091 19.5183 22.8091ZM28.3823 25.7474L26.8347 22.8568L26.0421 22.8593L26.0375 22.4067L29.4284 22.4021L29.433 22.8547L28.5816 22.8593L29.7809 24.8942L30.8184 22.8527L30.2249 22.8593L30.2203 22.4067L32.5653 22.4021L32.5699 22.8547L31.7685 22.8593L30.2277 25.7475H28.3823V25.7474ZM22.1576 25.7474L22.153 25.195L22.9542 25.1904L22.9496 22.8547L22.1576 22.8593L22.153 22.4067L25.2949 22.4021L25.2995 22.8547L24.4978 22.8593L24.5024 25.1951L25.3445 25.1906C25.6168 25.1906 26.3346 25.0124 26.3857 24.199L26.8881 24.1947L26.8926 25.7475H22.1576V25.7474ZM13.2437 25.7474L11.696 22.8568L10.9033 22.8593L10.8987 22.4067L14.2895 22.4021L14.2941 22.8547L13.4429 22.8593L14.642 24.8942L15.7295 22.8526L15.0862 22.8593L15.0816 22.4067L17.4269 22.4021L17.4315 22.8547L16.6299 22.8593L15.0891 25.7475H13.2437V25.7474Z" fill="white"/>
<path d="M34.6566 22.2569C36.0015 22.2569 37.0971 23.0539 37.0971 24.05C37.0971 25.0458 36.0017 25.8426 34.6566 25.8426C33.3623 25.8426 32.2667 25.0458 32.2667 24.05C32.2667 23.0539 33.3621 22.2569 34.6566 22.2569ZM34.6566 25.2946C35.1048 25.2946 35.5034 24.7468 35.5034 24.0498C35.5034 23.3029 35.1049 22.755 34.6566 22.755C34.1589 22.755 33.8104 23.3029 33.8104 24.0498C33.8104 24.7468 34.1589 25.2946 34.6566 25.2946ZM19.5183 22.3069C20.8628 22.3069 21.9582 23.1037 21.9582 24.0498C21.9582 25.0456 20.8628 25.8424 19.5183 25.8424C18.2235 25.8424 17.1279 25.0456 17.1279 24.0498C17.1281 23.1035 18.2235 22.3069 19.5183 22.3069ZM19.5183 25.2946C19.9665 25.2946 20.3649 24.7468 20.3649 24.0498C20.3649 23.3528 19.9665 22.8046 19.5183 22.8046C19.0202 22.8046 18.6717 23.3528 18.6717 24.0498C18.6717 24.7468 19.0202 25.2946 19.5183 25.2946ZM32.5652 22.4066V22.8546H31.7684L30.2248 25.7426H28.3822L26.8385 22.8546H26.0419V22.4066H29.4283V22.8546H28.5815L29.7768 24.8963L30.8222 22.8546H30.2248V22.4066H32.5652ZM25.2949 22.4066V22.8546H24.498V25.1948C24.498 25.1948 25.0458 25.1948 25.3448 25.1948C25.6436 25.1948 26.3406 24.996 26.3905 24.199C26.7887 24.199 26.8884 24.199 26.8884 24.199V25.7426H22.9542H22.1576V25.1948H22.9542V22.8546H22.1576V22.4066H25.2949ZM17.4269 22.4066V22.8546H16.6299L15.0863 25.7426H13.2437L11.7001 22.8546H10.9033V22.4066H14.2897V22.8546H13.443L14.6382 24.8963L15.7336 22.8546H15.0862V22.4066H17.4269ZM34.6566 22.2476C33.3338 22.2476 32.2577 23.0562 32.2577 24.0498C32.2577 25.0434 33.3339 25.8514 34.6566 25.8514C36.0073 25.8514 37.1061 25.0432 37.1061 24.0498C37.1061 23.0562 36.0073 22.2476 34.6566 22.2476ZM34.6566 25.2856C34.1793 25.2856 33.8196 24.7544 33.8196 24.05C33.8196 23.305 34.1717 22.7643 34.6566 22.7643C35.1185 22.7643 35.4942 23.3411 35.4942 24.05C35.4942 24.7197 35.1105 25.2856 34.6566 25.2856ZM19.5183 22.2978C18.2176 22.2978 17.1188 23.1002 17.1188 24.05C17.1188 25.0435 18.1952 25.8516 19.5183 25.8516C20.8687 25.8516 21.9674 25.0434 21.9674 24.05C21.9675 23.0837 20.8689 22.2978 19.5183 22.2978ZM19.5183 25.2856C19.0409 25.2856 18.6808 24.7544 18.6808 24.05C18.6808 23.3452 19.0409 22.8139 19.5183 22.8139C19.9723 22.8139 20.3558 23.38 20.3558 24.05C20.3558 24.7197 19.9723 25.2856 19.5183 25.2856ZM32.5743 22.3974H32.5652H30.2249H30.2158V22.4066V22.8546V22.8637H30.2249H30.8075L29.7761 24.8773L28.5975 22.8637H29.4283H29.4374V22.8546V22.4066V22.3974H29.4283H26.0419H26.0328V22.4066V22.8546V22.8637H26.0419H26.8331L28.3741 25.7469L28.3767 25.7516H28.3822H30.2248H30.2302L30.2328 25.7469L31.7739 22.8637H32.565H32.5742V22.8546V22.4066V22.3974H32.5743ZM25.3041 22.3974H25.2949H22.1576H22.1484V22.4066V22.8546V22.8637H22.1576H22.9451V25.1858H22.1576H22.1484V25.195V25.7428V25.7519H22.1576H22.9542H26.8882H26.8974V25.7428V24.1992V24.19H26.8882H26.3904H26.3817L26.3813 24.1986C26.3304 25.0085 25.6157 25.1858 25.3445 25.1858H24.5068V22.8637H25.2948H25.3039V22.8546V22.4066V22.3974H25.3041ZM17.436 22.3974H17.4269H15.0862H15.077V22.4066V22.8546V22.8637H15.0862H15.7182L14.6377 24.8777L13.4589 22.8638H14.2897H14.2988V22.8547V22.4067V22.3976H14.2897H10.9033H10.8942V22.4067V22.8547V22.8638H10.9033H11.6945L13.2357 25.747L13.2382 25.7518H13.2437H15.0863H15.0918L15.0944 25.747L16.6354 22.8637H17.4269H17.436V22.8546V22.4066V22.3974Z" fill="#1D2D28"/>
<defs>
<radialGradient id="paint0_radial_0_1538" cx="0" cy="0" r="1" gradientUnits="userSpaceOnUse" gradientTransform="translate(13.4252 21.0827) scale(30.8921)">
<stop stop-color="white"/>
<stop offset="0.0469" stop-color="#FCFCFB"/>
<stop offset="0.2247" stop-color="#FAFAF9"/>
<stop offset="0.3719" stop-color="#B9B9B8"/>
<stop offset="0.4972" stop-color="#888887"/>
<stop offset="0.5923" stop-color="#6A6A69"/>
<stop offset="0.6461" stop-color="#5F5F5E"/>
<stop offset="0.7275" stop-color="#555554"/>
<stop offset="0.8673" stop-color="#3A3939"/>
<stop offset="1" stop-color="#1B1919"/>
</radialGradient>
<linearGradient id="paint1_linear_0_1538" x1="18.1627" y1="22.0348" x2="29.2385" y2="25.8485" gradientUnits="userSpaceOnUse">
<stop stop-color="#E2E2DC"/>
<stop offset="1" stop-color="white"/>
</linearGradient>
<radialGradient id="paint2_radial_0_1538" cx="0" cy="0" r="1" gradientUnits="userSpaceOnUse" gradientTransform="translate(32.7908 33.5323) scale(33.903 33.9029)">
<stop stop-color="#C5C6C2"/>
<stop offset="1" stop-color="#868680"/>
</radialGradient>
<radialGradient id="paint3_radial_0_1538" cx="0" cy="0" r="1" gradientUnits="userSpaceOnUse" gradientTransform="translate(29.3332 29.3829) scale(23.8081 23.8081)">
<stop stop-color="white"/>
<stop offset="0.1986" stop-color="#F2F2F3"/>
<stop offset="0.2978" stop-color="#EAEAEB"/>
<stop offset="0.2992" stop-color="#E9E9EA"/>
<stop offset="0.3715" stop-color="#C3C3C3"/>
<stop offset="0.443" stop-color="#A5A5A5"/>
<stop offset="0.5126" stop-color="#8F8F8F"/>
<stop offset="0.5794" stop-color="#828281"/>
<stop offset="0.6404" stop-color="#7E7E7D"/>
<stop offset="0.7534" stop-color="#545352"/>
<stop offset="0.8551" stop-color="#353333"/>
<stop offset="0.9408" stop-color="#222020"/>
<stop offset="1" stop-color="#1B1919"/>
</radialGradient>
<linearGradient id="paint4_linear_0_1538" x1="12.5883" y1="28.9659" x2="12.5883" y2="27.8997" gradientUnits="userSpaceOnUse">
<stop stop-color="white" stop-opacity="0"/>
<stop offset="0.17" stop-color="#FAFAF9" stop-opacity="0"/>
<stop offset="0.427" stop-color="#BBBBB8" stop-opacity="0.1"/>
<stop offset="0.5232" stop-color="#8F8F8C" stop-opacity="0.2"/>
<stop offset="0.6238" stop-color="#686866" stop-opacity="0.3"/>
<stop offset="0.7234" stop-color="#4A4948" stop-opacity="0.6"/>
<stop offset="0.8206" stop-color="#343432" stop-opacity="0.8"/>
<stop offset="0.9141" stop-color="#272625" stop-opacity="0.9"/>
<stop offset="1" stop-color="#232221"/>
</linearGradient>
<linearGradient id="paint5_linear_0_1538" x1="35.4191" y1="28.9659" x2="35.4191" y2="27.8997" gradientUnits="userSpaceOnUse">
<stop stop-color="white" stop-opacity="0"/>
<stop offset="0.17" stop-color="#FAFAF9" stop-opacity="0"/>
<stop offset="0.427" stop-color="#BBBBB8" stop-opacity="0"/>
<stop offset="0.5232" stop-color="#8F8F8C" stop-opacity="0"/>
<stop offset="0.6238" stop-color="#686866" stop-opacity="0"/>
<stop offset="0.7234" stop-color="#4A4948" stop-opacity="0.25"/>
<stop offset="0.8206" stop-color="#343432" stop-opacity="0.5"/>
<stop offset="0.9141" stop-color="#272625" stop-opacity="0.75"/>
<stop offset="1" stop-color="#232221"/>
</linearGradient>
<radialGradient id="paint6_radial_0_1538" cx="0" cy="0" r="1" gradientUnits="userSpaceOnUse" gradientTransform="translate(10.1411 21.0841) scale(19.2195 19.2195)">
<stop stop-color="#006AB1"/>
<stop offset="0.0016" stop-color="#006AB1"/>
<stop offset="0.1275" stop-color="#0061A4"/>
<stop offset="0.2416" stop-color="#005E9F"/>
<stop offset="0.5062" stop-color="#00548E"/>
<stop offset="0.8371" stop-color="#004374"/>
<stop offset="0.9588" stop-color="#004173"/>
<stop offset="1" stop-color="#003B6F"/>
</radialGradient>
<linearGradient id="paint7_linear_0_1538" x1="38.2495" y1="17.0109" x2="30.7594" y2="9.5207" gradientUnits="userSpaceOnUse">
<stop offset="0.0056" stop-color="#212111"/>
<stop offset="0.6461" stop-color="#41403F"/>
<stop offset="0.6508" stop-color="#454443"/>
<stop offset="0.6558" stop-color="#52514F"/>
<stop offset="0.6608" stop-color="#666564"/>
<stop offset="0.6659" stop-color="#838281"/>
<stop offset="0.6711" stop-color="#A9A8A6"/>
<stop offset="0.6762" stop-color="#D6D5D2"/>
<stop offset="0.68" stop-color="#FDFCF9"/>
<stop offset="0.6826" stop-color="#FAF9F6"/>
<stop offset="0.6842" stop-color="#F2F1EE"/>
<stop offset="0.6856" stop-color="#E3E2DF"/>
<stop offset="0.6869" stop-color="#CECECA"/>
<stop offset="0.688" stop-color="#B3B3AF"/>
<stop offset="0.6891" stop-color="#93938E"/>
<stop offset="0.69" stop-color="#70706B"/>
<stop offset="0.6924" stop-color="#6D6D68"/>
<stop offset="0.7145" stop-color="#535250"/>
<stop offset="0.7396" stop-color="#3E3C3D"/>
<stop offset="0.7692" stop-color="#2E2B2D"/>
<stop offset="0.8059" stop-color="#222023"/>
<stop offset="0.8573" stop-color="#1C191D"/>
<stop offset="1" stop-color="#1A171B"/>
</linearGradient>
<radialGradient id="paint8_radial_0_1538" cx="0" cy="0" r="1" gradientUnits="userSpaceOnUse" gradientTransform="translate(37.6335 10.0175) scale(8.03209)">
<stop stop-color="#555552"/>
<stop offset="1" stop-color="#50504D"/>
</radialGradient>
<linearGradient id="paint9_linear_0_1538" x1="31.8682" y1="9.18506" x2="38.8896" y2="9.18506" gradientUnits="userSpaceOnUse">
<stop stop-color="#5D5D5F"/>
<stop offset="0.0852" stop-color="#505051"/>
<stop offset="0.2581" stop-color="#3C3C3C"/>
<stop offset="0.4497" stop-color="#2E2D2D"/>
<stop offset="0.6724" stop-color="#262524"/>
<stop offset="1" stop-color="#232221"/>
</linearGradient>
<linearGradient id="paint10_linear_0_1538" x1="38.8149" y1="16.1819" x2="38.8149" y2="9.11043" gradientUnits="userSpaceOnUse">
<stop stop-color="#5D5D5F"/>
<stop offset="0.096" stop-color="#555456"/>
<stop offset="0.4584" stop-color="#393939"/>
<stop offset="0.7723" stop-color="#292827"/>
<stop offset="1" stop-color="#232221"/>
</linearGradient>
<linearGradient id="paint11_linear_0_1538" x1="12.833" y1="17.8868" x2="17.3289" y2="23.9676" gradientUnits="userSpaceOnUse">
<stop stop-color="white"/>
<stop offset="0.1091" stop-color="#D8E8F3"/>
<stop offset="0.3376" stop-color="#8CBCDC"/>
<stop offset="0.5419" stop-color="#5099C9"/>
<stop offset="0.7143" stop-color="#257FBC"/>
<stop offset="0.8481" stop-color="#0A70B4"/>
<stop offset="0.927" stop-color="#006AB1"/>
<stop offset="0.9288" stop-color="#046BB2"/>
<stop offset="0.9489" stop-color="#2678B8"/>
<stop offset="0.968" stop-color="#3E81BD"/>
<stop offset="0.9856" stop-color="#4D86C0"/>
<stop offset="1" stop-color="#5288C1"/>
</linearGradient>
</defs>
</svg>
